<svg xmlns="http://www.w3.org/2000/svg" viewBox="0 0 557.07 157.96"><defs><style>.cls-1{fill:#a30000;}.cls-2{fill:#fff;}</style></defs><g id="Calque_2" data-name="Calque 2"><g id="Calque_5" data-name="Calque 5"><rect class="cls-1" x="2.5" y="2.5" width="552.07" height="152.96" rx="14.5"/><path class="cls-2" d="M540.07,5a12,12,0,0,1,12,12V141a12,12,0,0,1-12,12H17A12,12,0,0,1,5,141V17A12,12,0,0,1,17,5H540.07m0-5H17A17,17,0,0,0,0,17V141a17,17,0,0,0,17,17H540.07a17,17,0,0,0,17-17V17a17,17,0,0,0-17-17Z"/><path class="cls-2" d="M20.47,138V20H81.62V43.31H46.72V66h28.1V88.56H46.72v26.09H82.08V138Z"/><path class="cls-2" d="M133.34,138l-9.58-33.19L114.19,138H85v-.61l23.47-59.91L86.55,20.62V20h28.57l8.64,30.73L132.41,20H161v.62L139.05,77.44l23.47,59.91V138Z"/><path class="cls-2" d="M223,100H193.39v38H167.14V20h56.05c9.11,0,13.44,4.48,13.44,13.74v52.5C236.63,95.66,232.3,100,223,100ZM210.22,42.23H193.39V78.06h16.83Z"/><path class="cls-2" d="M289.89,138,273.53,93.19v-21h13.74v-30H270.59V138H244.34V20h55.9c9.11,0,13.43,4.48,13.43,13.74V74.5c0,9.27-4.32,13.75-13.43,13.75h-1.39l18.53,48.63V138Z"/><path class="cls-2" d="M322,138V20h61.15V43.31h-34.9V66h28.1V88.56h-28.1v26.09h35.36V138Z"/><path class="cls-2" d="M446.14,138H403.68c-9.11,0-13.44-4.47-13.44-13.74V98.28h26.25V116.5h16.83V99.36L394.72,73c-3.55-2.47-4.48-4.94-4.48-10.19v-29c0-9.26,4.33-13.74,13.44-13.74h42.61c9.11,0,13.43,4.32,13.43,13.59v25h-26.4V41.46H416.49v17l38.45,26.24c3.55,2.48,4.78,5.1,4.78,10.35v29.18C459.72,133.49,455.25,138,446.14,138Z"/><path class="cls-2" d="M524,138H481.49c-9.11,0-13.43-4.47-13.43-13.74V98.28h26.25V116.5h16.83V99.36L472.54,73c-3.56-2.47-4.48-4.94-4.48-10.19v-29c0-9.26,4.32-13.74,13.43-13.74h42.62c9.11,0,13.43,4.32,13.43,13.59v25h-26.4V41.46H494.31v17l38.44,26.24c3.55,2.48,4.79,5.1,4.79,10.35v29.18C537.54,133.49,533.06,138,524,138Z"/></g></g></svg>