<svg xmlns="http://www.w3.org/2000/svg" viewBox="0 0 224.16 641.32"><defs><style>.cls-1{fill:#ffc107;}</style></defs><g id="Calque_2" data-name="Calque 2"><g id="Calque_3" data-name="Calque 3"><path class="cls-1" d="M224.16,211.76V82.86q0-17.34-11-28.33t-28.33-11H147.08V0H125.65V43.56H98.15V0H76.73V43.56H39.31Q22,43.56,11,54.53T0,82.86V558.45q0,17.35,11,28.33t28.33,11H76.73v43.56H98.15V597.76h27.5v43.56h21.43V597.76h37.77q17.35,0,28.33-11t11-28.33V320.13H147.08v-233h27.5V211.76ZM49.22,554.2V87.11H76.73V554.2ZM174.58,362.62V554.2h-27.5V362.62Zm-48.93-42.49H115.44v42.49h10.21V554.2H98.15V87.11h27.5Z"/></g></g></svg>