<svg xmlns="http://www.w3.org/2000/svg" xmlns:xlink="http://www.w3.org/1999/xlink" viewBox="0 0 1225.41 1225.41"><defs><style>.cls-1{fill:url(#Dégradé_sans_nom_148);}.cls-2{fill:none;stroke-width:150px;}.cls-12,.cls-2{stroke:#000;stroke-miterlimit:10;}.cls-12,.cls-3{fill:#fff;}.cls-4{fill:url(#Dégradé_sans_nom_75);}.cls-5{fill:url(#Dégradé_sans_nom_75-2);}.cls-6{fill:url(#Dégradé_sans_nom_75-3);}.cls-7{fill:url(#Dégradé_sans_nom_75-4);}.cls-8{fill:url(#Dégradé_sans_nom_75-5);}.cls-9{fill:url(#Dégradé_sans_nom_75-6);}.cls-10{fill:url(#Dégradé_sans_nom_75-7);}.cls-11{fill:url(#Dégradé_sans_nom_75-8);}.cls-12{stroke-width:6px;}</style><radialGradient id="Dégradé_sans_nom_148" cx="612.7" cy="612.7" r="462.7" gradientUnits="userSpaceOnUse"><stop offset="0" stop-color="#fff"/><stop offset="0.35" stop-color="#03224c"/></radialGradient><linearGradient id="Dégradé_sans_nom_75" x1="612.7" y1="491.22" x2="612.7" y2="159.83" gradientUnits="userSpaceOnUse"><stop offset="0" stop-color="#efe1b3"/><stop offset="0.64" stop-color="#d8b647"/><stop offset="1" stop-color="#d4af37"/></linearGradient><linearGradient id="Dégradé_sans_nom_75-2" x1="-438.89" y1="-449.25" x2="-438.89" y2="-780.65" gradientTransform="translate(691.28 1154.81) rotate(45)" xlink:href="#Dégradé_sans_nom_75"/><linearGradient id="Dégradé_sans_nom_75-3" x1="-1847.49" y1="-370.68" x2="-1847.49" y2="-702.07" gradientTransform="translate(363.5 2460.19) rotate(90)" xlink:href="#Dégradé_sans_nom_75"/><linearGradient id="Dégradé_sans_nom_75-4" x1="-2787.97" y1="680.91" x2="-2787.97" y2="349.52" gradientTransform="translate(-791.31 3151.47) rotate(135)" xlink:href="#Dégradé_sans_nom_75"/><linearGradient id="Dégradé_sans_nom_75-5" x1="-2709.39" y1="2089.51" x2="-2709.39" y2="1758.12" gradientTransform="translate(-2096.69 2823.7) rotate(180)" xlink:href="#Dégradé_sans_nom_75"/><linearGradient id="Dégradé_sans_nom_75-6" x1="-1657.8" y1="3029.99" x2="-1657.8" y2="2698.59" gradientTransform="translate(-2787.97 1668.89) rotate(-135)" xlink:href="#Dégradé_sans_nom_75"/><linearGradient id="Dégradé_sans_nom_75-7" x1="-249.2" y1="2951.42" x2="-249.2" y2="2620.02" gradientTransform="translate(-2460.19 363.5) rotate(-90)" xlink:href="#Dégradé_sans_nom_75"/><linearGradient id="Dégradé_sans_nom_75-8" x1="691.28" y1="1899.82" x2="691.28" y2="1568.43" gradientTransform="translate(-1305.38 -327.77) rotate(-45)" xlink:href="#Dégradé_sans_nom_75"/></defs><g id="Calque_2" data-name="Calque 2"><g id="Calque_5" data-name="Calque 5"><circle class="cls-1" cx="612.7" cy="612.7" r="462.7"/><circle class="cls-2" cx="612.7" cy="612.7" r="537.7"/><path class="cls-3" d="M289.48,1096.29l-27-19.19c-5.53-3.93-6.13-8.45-2.13-14.07l39.06-54.92c4-5.63,8.56-6.48,14.09-2.55l26.89,19.13c5.63,4,6.32,8.59,2.32,14.21l-9.67,13.59-16-11.4,6-8.43-11.34-8.07L280,1069.2l11.34,8.07,10.27-14.44-8.35-5.93,9.54-13.4,24.36,17.33-23.46,33C299.66,1099.44,295.11,1100.29,289.48,1096.29Z"/><path class="cls-3" d="M362.75,1137.81l3.85-35.3,6.92-14,9.18,4.53,9.88-20-11.13-5.5-31.59,63.92-17.53-8.66L371.26,1044l37.32,18.44c6.08,3,7.49,7.43,4.44,13.61l-13.45,27.22c-3.06,6.19-7.42,7.75-13.51,4.74l-.93-.45-3.67,38.59-.36.72Z"/><path class="cls-3" d="M457.51,1173.37l-31.77-9.76c-6.49-2-8.47-6.09-6.45-12.69l19.8-64.42c2-6.59,6-8.87,12.46-6.87l31.77,9.76c6.48,2,8.58,6.13,6.56,12.72l-19.8,64.42C468.05,1173.12,464,1175.36,457.51,1173.37Zm11.71-71-13.3-4.09-16.08,52.33,13.3,4.08Z"/><path class="cls-3" d="M556.21,1191.53l5.15-42.81-11.08,34.34-13-1.57-2.63-36-5.15,42.82L510.43,1186l10.49-87.24,19.75,2.38,7.69,40.07.69.09,16.86-37.13,19.75,2.38-10.49,87.23Z"/><path class="cls-3" d="M609.16,1194.15l-.9-87.85,19.55-.2.9,87.85Z"/><path class="cls-3" d="M655.75,1192.86l-9.46-87.35,19.43-2.1,7.57,69.86,22.87-2.48,1.9,17.49Z"/><path class="cls-3" d="M728.91,1182.82l-20.47-85.44,19-4.56,16.38,68.33,22.36-5.36,4.1,17.11Z"/><path class="cls-3" d="M794.46,1165.18l-28.85-83,18.46-6.42,28.86,83Z"/><path class="cls-3" d="M880.87,1128.93l-29.9,14.5c-6.11,3-10.36,1.31-13.37-4.9l-29.39-60.64c-3-6.21-1.67-10.57,4.44-13.53l29.9-14.49c6.11-3,10.46-1.36,13.47,4.85l29.39,60.64C888.42,1121.57,887,1126,880.87,1128.93Zm-39.79-60-12.52,6.07,23.88,49.26,12.52-6.07Z"/><path class="cls-3" d="M954.35,1083.23l-37.51-25.6,24.54,34.75-16,11.28-50.68-71.76,15.68-11.08,36.94,24.59-23.88-33.81,16-11.28,50.69,71.76Z"/><path class="cls-3" d="M344.11,198.28,317,217.23c-5.56,3.88-10,2.92-14-2.73l-38.56-55.26c-3.95-5.66-3.22-10.24,2.34-14.12l27.07-18.89c5.66-4,10.2-3,14.15,2.6l9.55,13.68L301.4,153.76l-5.92-8.49-11.41,8,31.32,44.88,11.41-8-10.13-14.52-8.39,5.85L298.87,168l24.51-17.11,23.17,33.19C350.5,189.75,349.77,194.33,344.11,198.28Z"/><path class="cls-3" d="M405.69,164.49l-25.48-24.73-6.8-14.09,9.22-4.45-9.7-20.09-11.19,5.4,31,64.21-17.61,8.5-38.2-79.12L374.43,82c6.11-3,10.46-1.35,13.46,4.86l13.2,27.34c3,6.22,1.55,10.62-4.56,13.57l-.93.45,28.17,26.62.35.73Z"/><path class="cls-3" d="M487.63,134.87l-31.85,9.48c-6.51,1.93-10.43-.38-12.4-7L424.16,72.76c-2-6.61.06-10.7,6.56-12.63l31.86-9.48c6.5-1.93,10.54.35,12.51,7L494.3,122.2C496.27,128.82,494.14,132.93,487.63,134.87ZM458,69.28l-13.34,4,15.61,52.47,13.34-4Z"/><path class="cls-3" d="M571.07,120.72,566.3,77.86l-2.94,36-13,1.45L539.55,80.84l4.78,42.86-19.09,2.12-9.72-87.31,19.77-2.2,16.64,37.25.69-.08,7.93-40,19.77-2.2L590,118.61Z"/><path class="cls-3" d="M612.67,119.09l1.68-87.84,19.54.38-1.68,87.84Z"/><path class="cls-3" d="M650.72,120.21,661,33l19.42,2.28L672.19,105,695,107.7l-2,17.47Z"/><path class="cls-3" d="M712.81,128.91l21.24-85.26,19,4.73-17,68.18,22.32,5.56-4.26,17.07Z"/><path class="cls-3" d="M769.84,144.61l29.61-82.72,18.41,6.59L788.25,151.2Z"/><path class="cls-3" d="M846.47,177.63,816.7,162.86c-6.08-3-7.38-7.38-4.31-13.56l29.93-60.37c3.07-6.19,7.33-7.79,13.41-4.78L885.5,98.91c6.08,3,7.49,7.44,4.42,13.62L860,172.9C856.92,179.08,852.55,180.64,846.47,177.63Zm23-68.17L857,103.28l-24.32,49,12.47,6.18Z"/><path class="cls-3" d="M907.2,216.56l12-43.8-24.86,34.53-15.87-11.42,51.33-71.31,15.59,11.22-11.21,42.94,24.18-33.6,15.87,11.42-51.33,71.31Z"/><path class="cls-4" d="M670.62,269.25v-66.6q0-9-5.67-14.64t-14.64-5.67H630.79V159.83H619.72v22.51H605.51V159.83H594.43v22.51H575.1q-9,0-14.64,5.67t-5.67,14.64V448.4q0,9,5.67,14.64t14.64,5.67h19.33v22.51h11.08V468.71h14.21v22.51h11.07V468.71h19.52q9,0,14.64-5.67t5.67-14.64V325.25H630.79V204.84H645v64.41Zm-90.4,177V204.84h14.21V446.21Zm64.78-99v99H630.79v-99Zm-25.28-22h-5.28v22h5.28v99H605.51V204.84h14.21Z"/><path class="cls-5" d="M896.51,410.8l47.1-47.1q6.35-6.33,6.34-14.36T943.61,335l-13.8-13.8,15.91-15.92-7.83-7.83L922,313.35,911.93,303.3l15.92-15.92L920,279.55,904.1,295.47,890.43,281.8q-6.34-6.35-14.36-6.34T861.7,281.8L687.93,455.57q-6.34,6.35-6.34,14.36t6.34,14.37L701.6,498l-15.91,15.91,7.83,7.83,15.91-15.91,10.05,10.05-15.92,15.91,7.83,7.83,15.92-15.91,13.8,13.8q6.35,6.33,14.36,6.34t14.36-6.34l87.09-87.08-28.17-28.17,85.14-85.14,10.05,10.05L878.4,392.69Zm-189,61.2L878.14,301.33l10.05,10.05L717.52,482.05Zm115.8-24.19-70,70-10-10,70-70Zm-2.35-33.41-3.73-3.73L801.67,426.2l3.73,3.73-70,70-10-10.05L896,319.21l10.05,10.05Z"/><path class="cls-6" d="M956.15,670.62h66.61q9,0,14.64-5.67t5.67-14.64V630.79h22.51V619.72h-22.51V605.51h22.51V594.43h-22.51V575.1q0-9-5.67-14.64t-14.64-5.67H777q-9,0-14.64,5.67t-5.68,14.64v19.33h-22.5v11.08h22.5v14.21h-22.5v11.07h22.5v19.52q0,9,5.68,14.64T777,670.62H900.16V630.79h120.4V645H956.15ZM779.2,580.22h241.36v14.21H779.2Zm99,64.78h-99V630.79h99Zm22-25.28v-5.28h-22v5.28h-99V605.51h241.36v14.21Z"/><path class="cls-7" d="M814.61,896.51l47.09,47.1Q868,950,876.07,950t14.36-6.34l13.8-13.8,15.92,15.91,7.82-7.83L912.06,922l10.05-10.05L938,927.85l7.83-7.83L929.94,904.1l13.67-13.67q6.35-6.34,6.34-14.36t-6.34-14.37L769.83,687.93q-6.33-6.34-14.36-6.34t-14.36,6.34L727.44,701.6l-15.92-15.91-7.83,7.83,15.92,15.91-10.05,10.05-15.92-15.92-7.82,7.83,15.91,15.92-13.8,13.8q-6.34,6.35-6.34,14.36t6.34,14.36L775,856.92l28.17-28.17,85.14,85.14-10.05,10.05L832.72,878.4Zm-61.21-189L924.07,878.14,914,888.19,743.35,717.52Zm24.2,115.8-70-70,10-10,70,70Zm33.4-2.35,3.73-3.73-15.52-15.52-3.73,3.73-70-70,10-10L906.19,896l-10,10.05Z"/><path class="cls-8" d="M554.79,956.15v66.61q0,9,5.67,14.64t14.64,5.67h19.52v22.51h11.07v-22.51H619.9v22.51H631v-22.51h19.34q9,0,14.64-5.67t5.67-14.64V777q0-9-5.67-14.64t-14.64-5.68H631v-22.5H619.9v22.5H605.69v-22.5H594.62v22.5H575.1q-9,0-14.64,5.68T554.79,777V900.16h39.83v120.4H580.41V956.15ZM645.18,779.2v241.36H631V779.2Zm-64.77,99v-99h14.21v99Zm25.28,22H611v-22h-5.28v-99H619.9v241.36H605.69Z"/><path class="cls-9" d="M328.9,814.61,281.8,861.7q-6.35,6.34-6.34,14.37t6.34,14.36l13.8,13.8-15.92,15.92,7.83,7.82,15.92-15.91,10.05,10.05L297.56,938l7.83,7.83,15.92-15.91L335,943.61q6.34,6.35,14.36,6.34t14.36-6.34L537.48,769.83q6.33-6.33,6.34-14.36t-6.34-14.36L523.8,727.44l15.92-15.92-7.83-7.83L516,719.61l-10.05-10.05,15.91-15.92L514,685.82,498.1,701.73l-13.8-13.8q-6.35-6.34-14.37-6.34t-14.36,6.34L368.49,775l28.16,28.17-85.14,85.14-10.05-10.05L347,832.72Zm189-61.21L347.27,924.07l-10-10.05L507.89,743.35ZM402.13,777.6l70-70,10.05,10-70,70Zm2.35,33.4,3.73,3.73,15.53-15.52L420,795.48l70-70,10.05,10L329.39,906.19l-10.05-10Z"/><path class="cls-10" d="M269.25,554.79h-66.6q-9,0-14.64,5.67t-5.67,14.64v19.52H159.83v11.07h22.51V619.9H159.83V631h22.51v19.34q0,9,5.67,14.64t14.64,5.67H448.4q9,0,14.64-5.67t5.67-14.64V631h22.51V619.9H468.71V605.69h22.51V594.62H468.71V575.1q0-9-5.67-14.64t-14.64-5.67H325.25v39.83H204.84V580.41h64.41Zm177,90.39H204.84V631H446.21Zm-99-64.77h99v14.21h-99Zm-22,25.28V611h22v-5.28h99V619.9H204.84V605.69Z"/><path class="cls-11" d="M410.8,328.9l-47.1-47.1q-6.33-6.35-14.36-6.34T335,281.8l-13.8,13.8-15.92-15.92-7.83,7.83,15.92,15.92L303.3,313.48l-15.92-15.92-7.83,7.83,15.92,15.92L281.8,335q-6.35,6.34-6.34,14.36t6.34,14.36L455.57,537.48q6.35,6.33,14.36,6.34t14.37-6.34L498,523.8l15.91,15.92,7.83-7.83L505.8,516l10.05-10.05,15.91,15.91,7.83-7.83L523.68,498.1l13.8-13.8q6.33-6.35,6.34-14.37t-6.34-14.36L450.4,368.49l-28.17,28.16-85.14-85.14,10.05-10.05L392.69,347Zm61.2,189L301.33,347.27l10.05-10L482.05,507.89ZM447.81,402.13l70,70-10,10.05-70-70Zm-33.41,2.35-3.73,3.73,15.53,15.53,3.73-3.73,70,70-10.05,10.05L319.21,329.39l10.05-10.05Z"/><path class="cls-12" d="M126.22,714.26H49.65c-15.69,0-22.86-7.71-22.86-23.66V534.81c0-16,7.44-23.66,23.12-23.66h76.31c15.95,0,23.39,7.7,23.39,23.66v38.55H104.15V549.43H72V676h32.17V635H80.49V597h69.12V690.6C149.61,706.55,142.17,714.26,126.22,714.26Z"/><path class="cls-12" d="M242.39,714.26l-28.18-77.1V601h23.66V549.43H209.16V714.26H164V511.15H260.2c15.69,0,23.13,7.7,23.13,23.66V605c0,16-7.44,23.66-23.13,23.66h-2.39l31.9,83.75v1.86Z"/><path class="cls-12" d="M397.37,714.26H320.54c-15.69,0-22.86-7.71-22.86-23.66V534.81c0-16,7.17-23.66,22.86-23.66h76.83c15.69,0,23.13,7.7,23.13,23.66V690.6C420.5,706.55,413.06,714.26,397.37,714.26ZM375,549.43H342.87V676H375Z"/><path class="cls-12" d="M541.46,714.26v-99.7l-16,81.89H495.2l-15.95-81.89v99.7h-44.4V511.15h46L509.56,601h1.59l28.45-89.86h46V714.26Z"/><path class="cls-12" d="M599.94,714.26V511.15h45.2V714.26Z"/><path class="cls-12" d="M659.49,714.26V511.15h45.19V673.59h53.18v40.67Z"/><path class="cls-12" d="M767.42,714.26V511.15h45.19V673.59h53.18v40.67Z"/><path class="cls-12" d="M875.35,714.26V511.15h45.2V714.26Z"/><path class="cls-12" d="M1034.6,714.26H957.76c-15.68,0-22.86-7.71-22.86-23.66V534.81c0-16,7.18-23.66,22.86-23.66h76.84c15.68,0,23.12,7.7,23.12,23.66V690.6C1057.72,706.55,1050.28,714.26,1034.6,714.26Zm-22.34-164.83H980.1V676h32.16Z"/><path class="cls-12" d="M1154,714.26l-36.69-98.37v98.37h-45.2V511.15h44.4l37,95.71V511.15h45.19V714.26Z"/></g></g></svg>